<svg xmlns="http://www.w3.org/2000/svg" version="1.1" xmlns:xlink="http://www.w3.org/1999/xlink" width="107" height="106"><svg viewBox="0 0 107 106" fill="none" xmlns="http://www.w3.org/2000/svg" class="">
<path fill-rule="evenodd" clip-rule="evenodd" d="M58.7676 16.7708C58.7674 7.50854 51.2173 0 41.9038 0H20.2219C9.57791 0 0.949219 8.5812 0.949219 19.1667V86.25C0.949219 96.8355 9.57791 105.417 20.2219 105.417H41.9038C51.2173 105.417 58.7674 97.9081 58.7674 88.6458C82.1517 88.6458 101.751 73.3194 106.949 52.7083C101.751 32.0972 82.152 16.7708 58.7676 16.7708ZM58.7674 38.3333L58.7676 16.7708C35.3831 16.7709 15.7836 32.0972 10.5856 52.7083C15.7836 73.3194 35.3831 88.6458 58.7674 88.6458V67.0833C66.7504 67.0833 73.2219 60.6474 73.2219 52.7083C73.2219 44.7693 66.7504 38.3333 58.7674 38.3333ZM58.7674 38.3333V67.0833C50.7844 67.0833 44.3129 60.6474 44.3129 52.7083C44.3129 44.7693 50.7844 38.3333 58.7674 38.3333Z" fill="currentColor"></path>
</svg><style>@media (prefers-color-scheme: light) { :root { filter: none; } }
</style></svg>